<svg version="1.1" id="Layer_1" xmlns="http://www.w3.org/2000/svg" xmlns:xlink="http://www.w3.org/1999/xlink" x="0px" y="0px"
	 width="100%" viewBox="0 0 512 512" enable-background="new 0 0 512 512" xml:space="preserve">
<path fill="#FFFFFF" opacity="1.000000" stroke="none" 
	d="
M207.000000,513.000000 
	C187.645767,513.000000 168.291550,513.000000 148.610916,512.652466 
	C163.464127,508.651245 171.978775,497.215637 171.984283,481.145813 
	C172.016373,387.507965 172.009903,293.870117 171.958603,200.232269 
	C171.956818,196.975204 171.385849,193.713669 171.009842,190.462357 
	C169.177689,174.619461 153.877548,164.540527 139.351578,166.150787 
	C123.375198,167.921799 112.187050,178.376358 112.136406,195.525131 
	C111.852959,291.494781 111.982559,387.465698 112.032593,483.436127 
	C112.036667,491.248108 114.439751,498.585999 120.429916,503.640228 
	C124.999336,507.495697 130.765961,509.932251 136.000000,513.000000 
	C118.312439,513.000000 100.624878,513.000000 82.615051,512.650085 
	C84.010361,511.817932 85.851959,511.587769 87.425827,510.813477 
	C99.653358,504.797729 104.926903,494.363251 104.941948,481.292999 
	C105.050316,387.156342 105.019043,293.019470 104.929268,198.882782 
	C104.925735,195.180557 104.224625,191.388107 103.264015,187.793930 
	C99.760712,174.686203 86.728943,165.153305 71.620758,166.877716 
	C55.783092,168.685364 45.039921,180.907974 45.030788,195.615143 
	C44.970993,291.917877 44.903347,388.221008 45.247425,484.522552 
	C45.267422,490.119965 48.468212,495.881439 50.889515,501.250519 
	C53.943481,508.022614 61.158489,509.705475 67.000000,513.000000 
	C45.013996,513.000000 23.027990,513.000000 1.020993,513.000000 
	C1.020993,342.455902 1.020993,171.911804 1.020993,1.000000 
	C37.353401,1.000000 73.708046,1.000000 110.420204,1.325623 
	C100.712692,8.277628 96.029724,18.039564 95.059021,29.658640 
	C94.034683,41.919636 99.093506,52.262619 106.268425,61.744549 
	C112.245392,69.643326 114.039581,78.109344 111.168121,87.817886 
	C108.297272,97.524384 103.619652,106.080116 97.547791,114.102684 
	C93.738815,119.135384 94.685867,125.921173 98.881317,128.975662 
	C103.958939,132.672424 110.435982,131.990250 114.149887,126.274147 
	C119.803703,117.572342 125.514435,108.723679 129.626205,99.253639 
	C134.062439,89.036301 135.033218,77.604340 131.714737,66.925735 
	C129.306915,59.177528 124.671089,52.001163 120.330940,45.002544 
	C114.001076,34.795452 114.355263,27.188324 122.073135,18.251392 
	C123.637672,16.439726 124.193855,13.681823 124.970749,11.281134 
	C126.568672,6.343368 122.379349,4.083909 120.000000,1.000000 
	C145.354233,1.000000 170.708450,1.000000 196.420197,1.325624 
	C186.712784,8.277606 182.029663,18.039446 181.058990,29.658478 
	C180.034698,41.919441 185.093369,52.262520 192.268326,61.744446 
	C198.245316,69.643211 200.039581,78.109222 197.168137,87.817802 
	C194.297333,97.524323 189.619675,106.080025 183.547836,114.102608 
	C179.738876,119.135284 180.685867,125.921150 184.881241,128.975647 
	C189.958786,132.672424 196.436005,131.990250 200.149872,126.274200 
	C205.803680,117.572388 211.514435,108.723732 215.626205,99.253677 
	C220.062424,89.036339 221.033249,77.604362 217.714767,66.925751 
	C215.306946,59.177536 210.671066,52.001190 206.330933,45.002552 
	C200.001068,34.795410 200.355240,27.188284 208.073135,18.251381 
	C209.637680,16.439713 210.193878,13.681810 210.970764,11.281116 
	C212.568665,6.343352 208.379333,4.083914 206.000000,1.000000 
	C231.354233,1.000000 256.708466,1.000000 282.420227,1.325619 
	C272.712799,8.277567 268.029602,18.039370 267.058960,29.658384 
	C266.034637,41.919338 271.093323,52.262459 278.268311,61.744392 
	C284.245270,69.643158 286.039520,78.109161 283.168182,87.817741 
	C280.297424,97.524300 275.619690,106.079979 269.547882,114.102570 
	C265.738953,119.135239 266.685883,125.921211 270.881165,128.975632 
	C275.958710,132.672409 282.436066,131.990219 286.149841,126.274246 
	C291.803589,117.572426 297.514404,108.723801 301.626160,99.253761 
	C306.062439,89.036423 307.033264,77.604439 303.714783,66.925819 
	C301.306946,59.177586 296.671112,52.001205 292.330963,45.002556 
	C286.001038,34.795334 286.355225,27.188389 294.073120,18.251389 
	C295.637695,16.439701 296.193909,13.681813 296.970795,11.281123 
	C298.568665,6.343385 294.379364,4.083906 292.000000,1.000000 
	C317.354218,1.000000 342.708466,1.000000 368.420227,1.325619 
	C358.713074,8.277410 353.939117,18.034340 353.084045,29.658928 
	C352.188599,41.832115 356.995575,52.286858 364.262238,61.757481 
	C370.292725,69.616943 372.041107,78.116386 369.167053,87.823616 
	C366.293732,97.528328 361.618225,106.084923 355.544678,114.106544 
	C351.734924,119.138260 352.687195,125.922028 356.885712,128.976578 
	C361.966553,132.673035 368.435608,131.990417 372.152008,126.270744 
	C377.805786,117.569336 383.516174,108.720757 387.627502,99.250893 
	C392.063324,89.033676 393.033234,77.601807 389.714661,66.923637 
	C387.306732,59.175674 382.670288,51.999821 378.329987,45.001469 
	C372.000977,34.796505 372.355743,27.187862 380.073578,18.250982 
	C381.638062,16.439386 382.194000,13.681412 382.970856,11.280776 
	C384.568634,6.343054 380.379150,4.083880 378.000000,1.000000 
	C422.979248,1.000000 467.958496,1.000000 512.968872,1.000000 
	C512.968872,171.567215 512.968872,342.134430 512.968872,513.000000 
	C412.645966,513.000000 312.291656,513.000000 211.638947,512.633911 
	C227.370865,511.363861 239.114532,497.911469 239.085632,481.953278 
	C238.912781,386.509491 239.087357,291.065002 238.781235,195.621887 
	C238.763031,189.943481 236.813354,183.448013 233.646744,178.762665 
	C225.300461,166.413467 214.844482,164.071289 201.971649,166.667374 
	C186.426941,169.802292 179.140228,183.282104 179.115570,194.894363 
	C178.911469,291.004303 178.950439,387.114899 179.080338,483.225067 
	C179.092728,492.383392 182.528046,500.672241 190.488785,505.746582 
	C195.498306,508.939728 201.463516,510.633545 207.000000,513.000000 
M381.000000,241.500000 
	C381.000000,322.165497 380.998749,402.830963 381.008514,483.496460 
	C381.008728,485.155151 380.804688,486.911072 381.257782,488.456970 
	C384.582367,499.799805 391.800842,507.898438 403.311371,510.522919 
	C413.885803,512.934021 423.916016,510.410828 431.989044,502.496124 
	C439.185150,495.441254 440.897736,486.251068 440.921875,476.849426 
	C441.075470,417.017426 441.000000,357.184845 441.000000,297.352448 
	C441.000000,295.378357 441.000000,293.404297 441.000000,291.513885 
	C454.512634,288.695679 456.425201,287.691284 461.373627,280.173492 
	C470.062439,266.973206 471.010223,252.508530 467.184326,237.733887 
	C463.775543,224.570099 457.081238,214.168991 441.514984,213.795685 
	C441.006531,206.093689 440.204254,198.546356 440.073090,190.987396 
	C439.806824,175.643600 423.225952,161.894073 406.477692,164.899765 
	C390.473877,167.771851 381.000031,178.401764 381.000000,194.500717 
	C381.000000,209.833817 381.000000,225.166901 381.000000,241.500000 
M246.000000,204.523575 
	C246.000000,296.336548 245.967087,388.149536 246.041840,479.962433 
	C246.051132,491.375610 249.808578,501.288849 260.074036,507.479614 
	C270.242676,513.612000 280.967194,514.144653 291.277222,508.131348 
	C300.929260,502.501831 306.039948,493.879303 306.032928,482.338745 
	C305.974792,386.526703 306.022125,290.714569 305.973511,194.902466 
	C305.967041,182.167603 299.934662,173.115112 288.352234,167.800262 
	C275.988983,162.127090 261.016968,166.303543 253.198715,176.150558 
	C246.678314,184.362915 245.911072,193.756897 246.000000,204.523575 
M366.031830,501.456299 
	C370.730286,496.075073 373.037140,489.888947 373.033417,482.669159 
	C372.983459,386.190155 373.010132,289.711121 372.991913,193.232086 
	C372.988037,172.683136 351.097931,158.953201 331.560883,167.203140 
	C317.812042,173.008865 313.103302,184.697311 313.080627,198.427979 
	C312.926514,291.740784 312.981720,385.053986 313.064270,478.366943 
	C313.067719,482.256042 313.550964,486.273834 314.596924,490.011627 
	C320.670746,511.715729 349.177948,519.909119 366.031830,501.456299 
z"/>
<path fill="#FFA500" opacity="1.000000" stroke="none" 
	d="
M136.460632,513.000000 
	C130.765961,509.932251 124.999336,507.495697 120.429916,503.640228 
	C114.439751,498.585999 112.036667,491.248108 112.032593,483.436127 
	C111.982559,387.465698 111.852959,291.494781 112.136406,195.525131 
	C112.187050,178.376358 123.375198,167.921799 139.351578,166.150787 
	C153.877548,164.540527 169.177689,174.619461 171.009842,190.462357 
	C171.385849,193.713669 171.956818,196.975204 171.958603,200.232269 
	C172.009903,293.870117 172.016373,387.507965 171.984283,481.145813 
	C171.978775,497.215637 163.464127,508.651245 148.142258,512.652466 
	C144.307098,513.000000 140.614182,513.000000 136.460632,513.000000 
z"/>
<path fill="#FFA500" opacity="1.000000" stroke="none" 
	d="
M207.399994,513.000000 
	C201.463516,510.633545 195.498306,508.939728 190.488785,505.746582 
	C182.528046,500.672241 179.092728,492.383392 179.080338,483.225067 
	C178.950439,387.114899 178.911469,291.004303 179.115570,194.894363 
	C179.140228,183.282104 186.426941,169.802292 201.971649,166.667374 
	C214.844482,164.071289 225.300461,166.413467 233.646744,178.762665 
	C236.813354,183.448013 238.763031,189.943481 238.781235,195.621887 
	C239.087357,291.065002 238.912781,386.509491 239.085632,481.953278 
	C239.114532,497.911469 227.370865,511.363861 211.170288,512.633911 
	C209.933334,513.000000 208.866653,513.000000 207.399994,513.000000 
z"/>
<path fill="#FFA500" opacity="1.000000" stroke="none" 
	d="
M67.466118,513.000000 
	C61.158489,509.705475 53.943481,508.022614 50.889515,501.250519 
	C48.468212,495.881439 45.267422,490.119965 45.247425,484.522552 
	C44.903347,388.221008 44.970993,291.917877 45.030788,195.615143 
	C45.039921,180.907974 55.783092,168.685364 71.620758,166.877716 
	C86.728943,165.153305 99.760712,174.686203 103.264015,187.793930 
	C104.224625,191.388107 104.925735,195.180557 104.929268,198.882782 
	C105.019043,293.019470 105.050316,387.156342 104.941948,481.292999 
	C104.926903,494.363251 99.653358,504.797729 87.425827,510.813477 
	C85.851959,511.587769 84.010361,511.817932 82.146393,512.650085 
	C77.310745,513.000000 72.621490,513.000000 67.466118,513.000000 
z"/>
<path fill="#FFA500" opacity="1.000000" stroke="none" 
	d="
M119.550018,1.000000 
	C122.379349,4.083909 126.568672,6.343368 124.970749,11.281134 
	C124.193855,13.681823 123.637672,16.439726 122.073135,18.251392 
	C114.355263,27.188324 114.001076,34.795452 120.330940,45.002544 
	C124.671089,52.001163 129.306915,59.177528 131.714737,66.925735 
	C135.033218,77.604340 134.062439,89.036301 129.626205,99.253639 
	C125.514435,108.723679 119.803703,117.572342 114.149887,126.274147 
	C110.435982,131.990250 103.958939,132.672424 98.881317,128.975662 
	C94.685867,125.921173 93.738815,119.135384 97.547791,114.102684 
	C103.619652,106.080116 108.297272,97.524384 111.168121,87.817886 
	C114.039581,78.109344 112.245392,69.643326 106.268425,61.744549 
	C99.093506,52.262619 94.034683,41.919636 95.059021,29.658640 
	C96.029724,18.039564 100.712692,8.277628 110.888863,1.325623 
	C113.700012,1.000000 116.400032,1.000000 119.550018,1.000000 
z"/>
<path fill="#FFA500" opacity="1.000000" stroke="none" 
	d="
M205.550018,1.000000 
	C208.379333,4.083914 212.568665,6.343352 210.970764,11.281116 
	C210.193878,13.681810 209.637680,16.439713 208.073135,18.251381 
	C200.355240,27.188284 200.001068,34.795410 206.330933,45.002552 
	C210.671066,52.001190 215.306946,59.177536 217.714767,66.925751 
	C221.033249,77.604362 220.062424,89.036339 215.626205,99.253677 
	C211.514435,108.723732 205.803680,117.572388 200.149872,126.274200 
	C196.436005,131.990250 189.958786,132.672424 184.881241,128.975647 
	C180.685867,125.921150 179.738876,119.135284 183.547836,114.102608 
	C189.619675,106.080025 194.297333,97.524323 197.168137,87.817802 
	C200.039581,78.109222 198.245316,69.643211 192.268326,61.744446 
	C185.093369,52.262520 180.034698,41.919441 181.058990,29.658478 
	C182.029663,18.039446 186.712784,8.277606 196.888855,1.325624 
	C199.700012,1.000000 202.400024,1.000000 205.550018,1.000000 
z"/>
<path fill="#FFA500" opacity="1.000000" stroke="none" 
	d="
M291.550018,1.000000 
	C294.379364,4.083906 298.568665,6.343385 296.970795,11.281123 
	C296.193909,13.681813 295.637695,16.439701 294.073120,18.251389 
	C286.355225,27.188389 286.001038,34.795334 292.330963,45.002556 
	C296.671112,52.001205 301.306946,59.177586 303.714783,66.925819 
	C307.033264,77.604439 306.062439,89.036423 301.626160,99.253761 
	C297.514404,108.723801 291.803589,117.572426 286.149841,126.274246 
	C282.436066,131.990219 275.958710,132.672409 270.881165,128.975632 
	C266.685883,125.921211 265.738953,119.135239 269.547882,114.102570 
	C275.619690,106.079979 280.297424,97.524300 283.168182,87.817741 
	C286.039520,78.109161 284.245270,69.643158 278.268311,61.744392 
	C271.093323,52.262459 266.034637,41.919338 267.058960,29.658384 
	C268.029602,18.039370 272.712799,8.277567 282.888855,1.325619 
	C285.700012,1.000000 288.400024,1.000000 291.550018,1.000000 
z"/>
<path fill="#FFA500" opacity="1.000000" stroke="none" 
	d="
M377.550018,1.000000 
	C380.379150,4.083880 384.568634,6.343054 382.970856,11.280776 
	C382.194000,13.681412 381.638062,16.439386 380.073578,18.250982 
	C372.355743,27.187862 372.000977,34.796505 378.329987,45.001469 
	C382.670288,51.999821 387.306732,59.175674 389.714661,66.923637 
	C393.033234,77.601807 392.063324,89.033676 387.627502,99.250893 
	C383.516174,108.720757 377.805786,117.569336 372.152008,126.270744 
	C368.435608,131.990417 361.966553,132.673035 356.885712,128.976578 
	C352.687195,125.922028 351.734924,119.138260 355.544678,114.106544 
	C361.618225,106.084923 366.293732,97.528328 369.167053,87.823616 
	C372.041107,78.116386 370.292725,69.616943 364.262238,61.757481 
	C356.995575,52.286858 352.188599,41.832115 353.084045,29.658928 
	C353.939117,18.034340 358.713074,8.277410 368.888855,1.325619 
	C371.700012,1.000000 374.400024,1.000000 377.550018,1.000000 
z"/>
<path fill="#FFA500" opacity="1.000000" stroke="none" 
	d="
M381.000000,241.000000 
	C381.000000,225.166901 381.000000,209.833817 381.000000,194.500717 
	C381.000031,178.401764 390.473877,167.771851 406.477692,164.899765 
	C423.225952,161.894073 439.806824,175.643600 440.073090,190.987396 
	C440.204254,198.546356 441.006531,206.093689 441.514984,213.795685 
	C457.081238,214.168991 463.775543,224.570099 467.184326,237.733887 
	C471.010223,252.508530 470.062439,266.973206 461.373627,280.173492 
	C456.425201,287.691284 454.512634,288.695679 441.000000,291.513885 
	C441.000000,293.404297 441.000000,295.378357 441.000000,297.352448 
	C441.000000,357.184845 441.075470,417.017426 440.921875,476.849426 
	C440.897736,486.251068 439.185150,495.441254 431.989044,502.496124 
	C423.916016,510.410828 413.885803,512.934021 403.311371,510.522919 
	C391.800842,507.898438 384.582367,499.799805 381.257782,488.456970 
	C380.804688,486.911072 381.008728,485.155151 381.008514,483.496460 
	C380.998749,402.830963 381.000000,322.165497 381.000000,241.000000 
z"/>
<path fill="#FFA500" opacity="1.000000" stroke="none" 
	d="
M246.000000,204.028717 
	C245.911072,193.756897 246.678314,184.362915 253.198715,176.150558 
	C261.016968,166.303543 275.988983,162.127090 288.352234,167.800262 
	C299.934662,173.115112 305.967041,182.167603 305.973511,194.902466 
	C306.022125,290.714569 305.974792,386.526703 306.032928,482.338745 
	C306.039948,493.879303 300.929260,502.501831 291.277222,508.131348 
	C280.967194,514.144653 270.242676,513.612000 260.074036,507.479614 
	C249.808578,501.288849 246.051132,491.375610 246.041840,479.962433 
	C245.967087,388.149536 246.000000,296.336548 246.000000,204.028717 
z"/>
<path fill="#FFA500" opacity="1.000000" stroke="none" 
	d="
M365.781372,501.716736 
	C349.177948,519.909119 320.670746,511.715729 314.596924,490.011627 
	C313.550964,486.273834 313.067719,482.256042 313.064270,478.366943 
	C312.981720,385.053986 312.926514,291.740784 313.080627,198.427979 
	C313.103302,184.697311 317.812042,173.008865 331.560883,167.203140 
	C351.097931,158.953201 372.988037,172.683136 372.991913,193.232086 
	C373.010132,289.711121 372.983459,386.190155 373.033417,482.669159 
	C373.037140,489.888947 370.730286,496.075073 365.781372,501.716736 
z"/>
</svg>