<svg xmlns="http://www.w3.org/2000/svg" width="51.042" height="50.999" viewBox="0 0 51.042 50.999">
  <g id="Gruppe_2" data-name="Gruppe 2" transform="translate(-1304.479 -721.501)">
    <path id="Differenzmenge_3" data-name="Differenzmenge 3" d="M8221.006,3616h-11.674a2.494,2.494,0,0,1-.831-4.846v-28.488a1.668,1.668,0,0,0-3.336,0v1.82a2.5,2.5,0,0,1,1.668,2.347v8.334a2.5,2.5,0,0,1-1.668,2.346v1.82a15,15,0,1,1-30,0v-28.488A2.494,2.494,0,0,1,8176,3566h11.671a2.494,2.494,0,0,1,.832,4.846v28.488a1.668,1.668,0,0,0,3.335,0v-1.82a2.515,2.515,0,0,1-1.67-2.346v-8.334a2.511,2.511,0,0,1,1.67-2.347v-1.82a15,15,0,1,1,30,0v28.488a2.493,2.493,0,0,1-.825,4.846Zm-11.674-3.333a.833.833,0,0,0,0,1.666H8221a.833.833,0,1,0,0-1.666Zm-32.5-41.667v28.335a13.335,13.335,0,0,0,26.669,0v-1.667h-10v1.667a3.333,3.333,0,1,1-6.666,0V3571Zm30,8.334a3.337,3.337,0,0,1,3.333,3.333V3611h10v-28.333a13.335,13.335,0,0,0-26.67,0v1.668h10v-1.668A3.336,3.336,0,0,1,8206.833,3579.332ZM8192.669,3586a.836.836,0,0,0-.834.836v8.334a.835.835,0,0,0,.834.834h11.665a.834.834,0,0,0,.831-.834v-8.334a.835.835,0,0,0-.831-.836ZM8176,3567.665a.833.833,0,1,0,0,1.666h11.667a.833.833,0,0,0,0-1.666Z" transform="translate(-6868.5 -2843.999)" fill="#004588" stroke="rgba(0,0,0,0)" stroke-miterlimit="10" stroke-width="1"/>
    <path id="Shape" d="M.833,0A.833.833,0,0,0,0,.833V2.5a.833.833,0,0,0,1.667,0V.833A.833.833,0,0,0,.833,0Z" transform="translate(1310 728.667)" fill="#004588"/>
    <path id="Shape-2" data-name="Shape" d="M.833,0A.833.833,0,0,0,0,.833V12.5a.833.833,0,0,0,1.667,0V.833A.833.833,0,0,0,.833,0Z" transform="translate(1310 733.667)" fill="#004588"/>
  </g>
</svg>
