<svg version="1.1" id="Layer_1" xmlns="http://www.w3.org/2000/svg" xmlns:xlink="http://www.w3.org/1999/xlink" x="0px" y="0px"
	 width="100%" viewBox="0 0 980 986" enable-background="new 0 0 980 986" xml:space="preserve">
<path fill="#FFFFFF" opacity="1.000000" stroke="none" 
	d="
M484.000000,1.000000 
	C649.617493,1.000000 815.235046,1.000000 981.000000,1.000000 
	C981.000000,302.694672 981.000000,604.389404 980.726990,906.305664 
	C977.972351,901.555359 976.332581,895.875488 972.855103,891.741333 
	C961.304749,878.010071 949.332397,864.610840 937.060364,851.516724 
	C927.196533,840.992004 916.582764,831.173950 906.442810,820.903198 
	C883.652222,797.818604 861.063416,774.533875 838.181519,751.540588 
	C809.852722,723.073792 781.266602,694.863281 752.871216,666.462524 
	C716.645813,630.230103 680.412537,594.004639 644.386841,557.574219 
	C636.342651,549.439697 628.582153,540.889221 621.732910,531.749573 
	C615.838135,523.883545 609.783569,515.473145 609.233276,505.125458 
	C608.173889,485.201813 608.077637,465.223724 606.843872,445.313965 
	C606.234985,435.488007 604.811646,425.546539 602.318542,416.034363 
	C594.701721,386.973969 576.104065,364.854218 554.392334,345.437073 
	C545.398499,337.393768 534.594910,330.831421 523.633789,325.683411 
	C512.723633,320.559357 500.749756,317.327667 488.931580,314.625092 
	C479.154266,312.389252 468.947418,311.655457 458.886627,311.166229 
	C452.010834,310.831879 445.005371,311.696533 438.156494,312.698975 
	C431.644379,313.652161 425.210480,315.291687 418.833771,316.976105 
	C412.122437,318.748901 410.954956,322.224335 415.543274,327.100372 
	C433.907593,346.616272 452.547394,365.874573 470.785065,385.507050 
	C476.274109,391.415985 482.160767,397.602295 485.437683,404.771179 
	C490.628540,416.127197 490.324799,428.540588 485.580261,440.245331 
	C483.535309,445.290253 480.568268,450.312744 476.864746,454.261902 
	C468.829224,462.830475 459.815918,470.475342 451.646515,478.927124 
	C444.720947,486.092133 436.805573,491.200165 427.329895,494.251801 
	C416.632050,497.697021 405.842957,496.546051 396.719086,491.423981 
	C388.155396,486.616425 381.116821,478.923920 373.822418,472.059570 
	C359.696503,458.766602 345.873444,445.152069 331.895874,431.700958 
	C329.684174,429.572601 327.420135,427.475433 325.009155,425.581726 
	C318.120667,420.171326 316.020447,420.495361 314.267639,428.596252 
	C312.442902,437.029755 310.429443,445.499664 311.782715,454.467255 
	C312.578583,459.740967 310.763062,465.358856 311.094299,470.762329 
	C311.947174,484.674286 314.119141,498.413605 319.183502,511.505157 
	C328.462708,535.492188 342.759369,555.946472 362.207916,572.871216 
	C379.390015,587.823608 398.685730,598.726013 420.826782,604.240906 
	C440.927094,609.247498 461.485413,610.058289 482.075531,609.953003 
	C495.006378,609.886902 506.902618,613.246277 516.746826,621.472168 
	C533.063965,635.106934 549.231812,648.975342 564.712708,663.542114 
	C584.364014,682.033020 603.364258,701.221558 622.473755,720.281372 
	C675.095337,772.766296 727.515015,825.454163 780.240601,877.834167 
	C808.246521,905.656372 836.482483,933.257996 865.103638,960.444397 
	C876.306763,971.085876 887.470459,982.300293 903.000000,987.000000 
	C602.422974,987.000000 301.845917,987.000000 1.000000,987.000000 
	C1.000000,822.638733 1.000000,658.277283 1.272413,493.675171 
	C2.194368,503.315704 5.983430,511.647034 14.079324,517.579102 
	C18.260166,520.642517 22.639019,525.255554 27.216528,525.628113 
	C43.115028,526.921997 59.139076,526.698120 75.116592,526.983337 
	C80.947777,527.087463 86.784500,527.093811 92.614502,526.960815 
	C95.436745,526.896484 96.559525,527.796448 97.153099,530.780212 
	C103.121284,560.780762 112.797050,589.624084 126.128746,617.102844 
	C133.633911,632.572144 142.611374,647.325684 150.863541,662.435608 
	C151.952911,664.430298 154.224457,666.257324 151.518005,668.963684 
	C147.065323,673.416260 143.059570,678.315857 138.605423,682.766785 
	C133.104095,688.264038 127.241875,693.399597 121.728401,698.885254 
	C119.295853,701.305542 117.686974,704.613403 115.102386,706.810364 
	C105.706284,714.797241 102.219055,724.967896 103.097878,736.947632 
	C103.270485,739.300598 103.504967,741.657288 103.876564,743.985840 
	C105.262123,752.668030 111.855072,758.035156 117.352386,763.792786 
	C130.684952,777.756409 144.523666,791.239136 158.242859,804.830383 
	C166.565521,813.075500 176.566544,815.842834 188.199600,814.361145 
	C199.689087,812.897766 207.897552,805.994751 215.725677,798.642883 
	C226.888168,788.159424 237.595032,777.186646 248.364426,766.292358 
	C250.411011,764.222046 251.867371,763.995728 254.226196,765.743835 
	C271.932648,778.866089 291.686279,788.240356 311.740021,797.097046 
	C335.416992,807.553955 360.125977,814.764832 385.219818,820.758301 
	C388.091980,821.444275 389.153229,822.420898 389.046631,825.306030 
	C388.872467,830.019531 388.787994,834.755493 389.039795,839.461975 
	C389.786560,853.419617 391.768036,867.402954 391.299164,881.309875 
	C390.752625,897.519348 404.978058,912.179993 416.953949,914.427795 
	C424.877899,915.915100 433.052368,916.067749 441.575531,916.864685 
	C453.317078,916.879822 464.597748,916.848206 476.335022,916.883423 
	C482.590576,916.615112 488.530823,916.947571 494.149048,915.758545 
	C499.846771,914.552612 505.633667,912.551697 510.666321,909.656006 
	C523.793396,902.102844 526.321838,888.908142 526.916443,875.327637 
	C527.641174,858.775879 527.614990,842.191956 528.243042,825.634399 
	C528.304443,824.016357 530.384766,821.566467 532.015198,821.054504 
	C552.440063,814.640564 573.001160,808.660034 593.420227,802.228394 
	C600.132324,800.114197 606.536255,797.021484 613.373108,794.258179 
	C612.298889,792.554260 611.822266,791.469604 611.062622,790.646057 
	C605.642700,784.769714 600.285767,778.828125 594.684326,773.127808 
	C573.206238,751.270569 551.668579,729.471436 530.034241,707.769226 
	C529.029602,706.761414 526.780640,706.340820 525.279175,706.604248 
	C520.839050,707.383362 516.535950,709.034119 512.083618,709.634644 
	C502.228973,710.964050 492.321869,711.920227 482.424011,712.906799 
	C477.665680,713.381104 472.879883,713.579224 467.844391,713.557739 
	C459.054810,713.169250 450.527313,713.125488 441.616760,713.206665 
	C431.902924,712.756897 422.392944,713.116577 413.287109,711.369629 
	C402.038879,709.211609 391.088379,705.429199 380.083038,702.104309 
	C373.257874,700.042297 366.350616,698.014038 359.871460,695.100647 
	C350.223602,690.762390 340.728912,685.994751 331.528168,680.776550 
	C322.934692,675.902832 314.540131,670.572632 306.562988,664.751282 
	C300.115387,660.046143 294.152008,654.583069 288.447815,648.974182 
	C278.157501,638.855835 267.537933,628.947937 258.314209,617.901489 
	C247.281601,604.688660 237.497757,590.361206 230.425629,574.544434 
	C224.290894,560.824158 218.061172,547.036072 213.464767,532.765381 
	C207.428146,514.023132 203.449707,494.700500 203.898071,474.768402 
	C204.304749,456.688782 203.608032,438.504120 205.353867,420.556030 
	C207.336380,400.174652 213.809937,380.660828 221.728973,361.733582 
	C241.452438,314.592651 273.388428,277.458344 314.704437,247.926407 
	C353.701324,220.052139 397.534607,206.675995 445.455902,204.009384 
	C454.953949,204.034424 463.985413,203.991211 473.452972,203.967346 
	C489.220062,206.347305 504.788757,207.702408 519.836792,211.259857 
	C562.492249,221.343857 599.731323,242.095840 631.946655,271.655487 
	C652.140625,290.184723 668.940002,311.574158 681.974976,335.747345 
	C698.809692,366.967102 710.464844,399.808594 712.044373,435.634491 
	C712.500549,445.981232 712.863647,456.338593 712.934082,466.693359 
	C712.976318,472.890106 712.523865,479.104340 712.003601,485.286316 
	C711.583801,490.273956 710.862061,495.247131 710.037842,500.187317 
	C708.674377,508.360077 707.533936,516.604370 705.529175,524.626099 
	C703.579529,532.427063 701.573792,539.742737 710.160339,545.010010 
	C711.540955,545.856934 712.533508,547.330750 713.721863,548.498047 
	C736.646118,571.017578 759.527649,593.580811 782.535339,616.014893 
	C787.365906,620.725037 789.565430,620.453552 791.880249,614.288086 
	C799.182556,594.838623 806.264160,575.298096 812.948792,555.628845 
	C816.005127,546.635864 817.932922,537.259399 820.285278,528.385986 
	C827.922241,527.982605 834.883545,527.499451 841.853210,527.278809 
	C849.008911,527.052246 856.184753,527.311707 863.329895,526.939209 
	C871.424194,526.517212 879.520020,525.845886 887.567566,524.884399 
	C895.966980,523.880859 902.642761,520.075012 907.918152,513.013184 
	C914.373047,504.372375 915.043152,494.718292 915.258728,484.386780 
	C915.626099,469.398010 915.802856,454.707916 915.859802,440.017365 
	C915.868530,437.761963 915.325439,435.504456 915.044800,432.770569 
	C915.034424,429.961243 914.991943,427.629181 915.003113,425.297363 
	C915.079590,409.410767 901.073975,392.035400 882.601685,391.948364 
	C869.294922,391.885681 855.991699,391.264313 842.684570,391.015137 
	C835.288269,390.876617 827.887207,390.990234 820.316223,390.990234 
	C816.943665,378.690063 814.182007,366.607025 810.281128,354.903717 
	C805.485535,340.516479 799.671936,326.470947 794.420593,312.232666 
	C787.369934,293.116058 776.844971,275.796814 765.884216,258.837708 
	C762.593079,253.745438 763.670288,251.841507 767.077271,248.273560 
	C780.396851,234.324356 793.756836,220.387772 806.464600,205.887985 
	C817.627747,193.150513 817.793152,174.549728 805.713623,161.620621 
	C800.841003,156.405258 796.150818,151.019791 791.299255,145.784348 
	C785.333679,139.346771 779.533203,132.727310 773.203125,126.664932 
	C767.181946,120.898476 760.567993,115.751305 754.219177,110.326607 
	C743.777588,101.404770 724.131592,99.286636 712.705750,110.081337 
	C709.758301,112.865990 706.859680,115.703835 703.867065,118.439003 
	C693.760315,127.676392 683.601196,136.856659 673.517517,146.119110 
	C672.084106,147.435806 671.081238,149.218018 669.661865,150.554062 
	C667.111023,152.955154 664.879639,155.442200 660.534180,152.975876 
	C645.873108,144.654892 631.293030,136.088516 616.095764,128.846085 
	C602.916931,122.565567 588.852295,118.170914 575.342041,112.551300 
	C560.264404,106.279732 544.405090,103.125549 528.406372,99.465897 
	C528.171631,85.897064 528.118896,72.779152 527.916748,59.663548 
	C527.863708,56.223934 527.346863,52.791470 527.055908,48.871101 
	C527.113342,38.956791 526.817017,29.488731 522.009277,21.071703 
	C516.686035,11.752246 509.562256,4.566458 498.009979,3.385461 
	C493.307831,2.904755 488.668121,1.813475 484.000000,1.000000 
z"/>
<path fill="#90EE90" opacity="1.000000" stroke="none" 
	d="
M441.114685,916.817993 
	C433.052368,916.067749 424.877899,915.915100 416.953949,914.427795 
	C404.978058,912.179993 390.752625,897.519348 391.299164,881.309875 
	C391.768036,867.402954 389.786560,853.419617 389.039795,839.461975 
	C388.787994,834.755493 388.872467,830.019531 389.046631,825.306030 
	C389.153229,822.420898 388.091980,821.444275 385.219818,820.758301 
	C360.125977,814.764832 335.416992,807.553955 311.740021,797.097046 
	C291.686279,788.240356 271.932648,778.866089 254.226196,765.743835 
	C251.867371,763.995728 250.411011,764.222046 248.364426,766.292358 
	C237.595032,777.186646 226.888168,788.159424 215.725677,798.642883 
	C207.897552,805.994751 199.689087,812.897766 188.199600,814.361145 
	C176.566544,815.842834 166.565521,813.075500 158.242859,804.830383 
	C144.523666,791.239136 130.684952,777.756409 117.352386,763.792786 
	C111.855072,758.035156 105.262123,752.668030 103.876564,743.985840 
	C103.504967,741.657288 103.270485,739.300598 103.097878,736.947632 
	C102.219055,724.967896 105.706284,714.797241 115.102386,706.810364 
	C117.686974,704.613403 119.295853,701.305542 121.728401,698.885254 
	C127.241875,693.399597 133.104095,688.264038 138.605423,682.766785 
	C143.059570,678.315857 147.065323,673.416260 151.518005,668.963684 
	C154.224457,666.257324 151.952911,664.430298 150.863541,662.435608 
	C142.611374,647.325684 133.633911,632.572144 126.128746,617.102844 
	C112.797050,589.624084 103.121284,560.780762 97.153099,530.780212 
	C96.559525,527.796448 95.436745,526.896484 92.614502,526.960815 
	C86.784500,527.093811 80.947777,527.087463 75.116592,526.983337 
	C59.139076,526.698120 43.115028,526.921997 27.216528,525.628113 
	C22.639019,525.255554 18.260166,520.642517 14.079324,517.579102 
	C5.983430,511.647034 2.194368,503.315704 1.272413,493.217224 
	C1.000000,469.645782 1.000000,446.291534 1.285032,422.314453 
	C1.785281,421.245117 2.120297,420.818420 2.198009,420.349152 
	C3.731820,411.087250 9.039855,404.541473 16.085670,398.517517 
	C24.272116,391.518341 33.817039,391.689911 43.831848,390.979034 
	C60.152424,390.985657 76.045509,391.031433 91.938011,390.955780 
	C93.595833,390.947906 95.250237,390.220886 96.987503,389.456604 
	C99.662239,379.134613 102.016731,369.113861 104.897095,359.246582 
	C111.658165,336.085236 119.878769,313.492676 131.766449,292.367554 
	C134.176544,288.084717 135.816269,283.369537 138.210571,279.076447 
	C142.545181,271.304352 147.144394,263.678375 151.710846,256.037842 
	C153.208679,253.531693 153.058533,251.576508 150.918198,249.404190 
	C140.051575,238.375320 129.138184,227.384567 118.560219,216.081863 
	C110.546700,207.519272 102.970734,198.499786 103.086662,185.734711 
	C103.148575,178.916702 103.042290,172.191376 107.062653,165.953766 
	C113.504639,155.959030 121.072838,147.044067 129.972549,139.213791 
	C133.078964,136.480682 136.292511,133.863632 139.310715,131.037201 
	C145.403992,125.331131 151.223236,119.321152 157.476608,113.800240 
	C164.803360,107.331688 172.893356,103.371391 183.381378,103.678009 
	C192.251831,103.937332 200.130234,105.709541 206.647919,111.405205 
	C215.301605,118.967453 223.412323,127.150467 231.768677,135.053696 
	C238.757385,141.663437 245.763824,148.254410 252.137695,154.264648 
	C269.166138,145.261108 285.456421,136.060028 302.257965,127.913429 
	C323.157166,117.780006 344.831818,109.489807 367.533905,104.181122 
	C373.434784,102.801239 379.404846,100.328239 385.260071,100.550041 
	C390.635498,100.753662 390.010742,98.378601 390.004700,95.189713 
	C389.990173,87.526405 389.958282,79.862785 390.009003,72.199791 
	C390.102997,58.002174 389.790833,43.835411 392.354004,29.707060 
	C394.903778,15.652777 404.396759,7.364567 417.386902,3.457488 
	C421.774109,2.137946 426.453918,1.791288 431.000000,1.000004 
	C432.714355,1.000000 434.428711,1.000000 436.850037,1.314104 
	C449.970612,1.725037 462.384186,1.844901 474.798004,1.877759 
	C475.864563,1.880582 476.932617,1.306239 478.000000,1.000004 
	C479.714355,1.000000 481.428711,1.000000 483.571533,1.000000 
	C488.668121,1.813475 493.307831,2.904755 498.009979,3.385461 
	C509.562256,4.566458 516.686035,11.752246 522.009277,21.071703 
	C526.817017,29.488731 527.113342,38.956791 527.072998,49.298332 
	C527.049255,65.234200 526.976440,80.258461 527.061218,95.281837 
	C527.070007,96.829834 528.019531,98.372520 528.532532,99.917671 
	C544.405090,103.125549 560.264404,106.279732 575.342041,112.551300 
	C588.852295,118.170914 602.916931,122.565567 616.095764,128.846085 
	C631.293030,136.088516 645.873108,144.654892 660.534180,152.975876 
	C664.879639,155.442200 667.111023,152.955154 669.661865,150.554062 
	C671.081238,149.218018 672.084106,147.435806 673.517517,146.119110 
	C683.601196,136.856659 693.760315,127.676392 703.867065,118.439003 
	C706.859680,115.703835 709.758301,112.865990 712.705750,110.081337 
	C724.131592,99.286636 743.777588,101.404770 754.219177,110.326607 
	C760.567993,115.751305 767.181946,120.898476 773.203125,126.664932 
	C779.533203,132.727310 785.333679,139.346771 791.299255,145.784348 
	C796.150818,151.019791 800.841003,156.405258 805.713623,161.620621 
	C817.793152,174.549728 817.627747,193.150513 806.464600,205.887985 
	C793.756836,220.387772 780.396851,234.324356 767.077271,248.273560 
	C763.670288,251.841507 762.593079,253.745438 765.884216,258.837708 
	C776.844971,275.796814 787.369934,293.116058 794.420593,312.232666 
	C799.671936,326.470947 805.485535,340.516479 810.281128,354.903717 
	C814.182007,366.607025 816.943665,378.690063 820.316223,390.990234 
	C827.887207,390.990234 835.288269,390.876617 842.684570,391.015137 
	C855.991699,391.264313 869.294922,391.885681 882.601685,391.948364 
	C901.073975,392.035400 915.079590,409.410767 915.003113,425.297363 
	C914.991943,427.629181 915.034424,429.961243 915.041504,433.210144 
	C915.030273,450.979828 915.029602,467.832550 915.028931,484.685303 
	C915.043152,494.718292 914.373047,504.372375 907.918152,513.013184 
	C902.642761,520.075012 895.966980,523.880859 887.567566,524.884399 
	C879.520020,525.845886 871.424194,526.517212 863.329895,526.939209 
	C856.184753,527.311707 849.008911,527.052246 841.853210,527.278809 
	C834.883545,527.499451 827.922241,527.982605 820.285278,528.385986 
	C817.932922,537.259399 816.005127,546.635864 812.948792,555.628845 
	C806.264160,575.298096 799.182556,594.838623 791.880249,614.288086 
	C789.565430,620.453552 787.365906,620.725037 782.535339,616.014893 
	C759.527649,593.580811 736.646118,571.017578 713.721863,548.498047 
	C712.533508,547.330750 711.540955,545.856934 710.160339,545.010010 
	C701.573792,539.742737 703.579529,532.427063 705.529175,524.626099 
	C707.533936,516.604370 708.674377,508.360077 710.037842,500.187317 
	C710.862061,495.247131 711.583801,490.273956 712.003601,485.286316 
	C712.523865,479.104340 712.976318,472.890106 712.934082,466.693359 
	C712.863647,456.338593 712.500549,445.981232 712.044373,435.634491 
	C710.464844,399.808594 698.809692,366.967102 681.974976,335.747345 
	C668.940002,311.574158 652.140625,290.184723 631.946655,271.655487 
	C599.731323,242.095840 562.492249,221.343857 519.836792,211.259857 
	C504.788757,207.702408 489.220062,206.347305 473.236633,203.591125 
	C464.219757,203.108719 455.855347,202.992844 447.490814,202.980103 
	C446.657471,202.978836 445.823151,203.605743 444.989288,203.941132 
	C397.534607,206.675995 353.701324,220.052139 314.704437,247.926407 
	C273.388428,277.458344 241.452438,314.592651 221.728973,361.733582 
	C213.809937,380.660828 207.336380,400.174652 205.353867,420.556030 
	C203.608032,438.504120 204.304749,456.688782 203.898071,474.768402 
	C203.449707,494.700500 207.428146,514.023132 213.464767,532.765381 
	C218.061172,547.036072 224.290894,560.824158 230.425629,574.544434 
	C237.497757,590.361206 247.281601,604.688660 258.314209,617.901489 
	C267.537933,628.947937 278.157501,638.855835 288.447815,648.974182 
	C294.152008,654.583069 300.115387,660.046143 306.562988,664.751282 
	C314.540131,670.572632 322.934692,675.902832 331.528168,680.776550 
	C340.728912,685.994751 350.223602,690.762390 359.871460,695.100647 
	C366.350616,698.014038 373.257874,700.042297 380.083038,702.104309 
	C391.088379,705.429199 402.038879,709.211609 413.287109,711.369629 
	C422.392944,713.116577 431.902924,712.756897 441.902344,713.513672 
	C451.082855,713.764526 459.594696,713.833496 468.106506,713.902405 
	C472.879883,713.579224 477.665680,713.381104 482.424011,712.906799 
	C492.321869,711.920227 502.228973,710.964050 512.083618,709.634644 
	C516.535950,709.034119 520.839050,707.383362 525.279175,706.604248 
	C526.780640,706.340820 529.029602,706.761414 530.034241,707.769226 
	C551.668579,729.471436 573.206238,751.270569 594.684326,773.127808 
	C600.285767,778.828125 605.642700,784.769714 611.062622,790.646057 
	C611.822266,791.469604 612.298889,792.554260 613.373108,794.258179 
	C606.536255,797.021484 600.132324,800.114197 593.420227,802.228394 
	C573.001160,808.660034 552.440063,814.640564 532.015198,821.054504 
	C530.384766,821.566467 528.304443,824.016357 528.243042,825.634399 
	C527.614990,842.191956 527.641174,858.775879 526.916443,875.327637 
	C526.321838,888.908142 523.793396,902.102844 510.666321,909.656006 
	C505.633667,912.551697 499.846771,914.552612 494.149048,915.758545 
	C488.530823,916.947571 482.590576,916.615112 476.034119,916.610596 
	C470.129364,916.169800 464.979279,915.912659 459.835632,916.007507 
	C453.592438,916.122498 447.354767,916.534485 441.114685,916.817993 
z"/>
<path fill="#90ED90" opacity="1.000000" stroke="none" 
	d="
M903.468384,987.000000 
	C887.470459,982.300293 876.306763,971.085876 865.103638,960.444397 
	C836.482483,933.257996 808.246521,905.656372 780.240601,877.834167 
	C727.515015,825.454163 675.095337,772.766296 622.473755,720.281372 
	C603.364258,701.221558 584.364014,682.033020 564.712708,663.542114 
	C549.231812,648.975342 533.063965,635.106934 516.746826,621.472168 
	C506.902618,613.246277 495.006378,609.886902 482.075531,609.953003 
	C461.485413,610.058289 440.927094,609.247498 420.826782,604.240906 
	C398.685730,598.726013 379.390015,587.823608 362.207916,572.871216 
	C342.759369,555.946472 328.462708,535.492188 319.183502,511.505157 
	C314.119141,498.413605 311.947174,484.674286 311.094299,470.762329 
	C310.763062,465.358856 312.578583,459.740967 311.782715,454.467255 
	C310.429443,445.499664 312.442902,437.029755 314.267639,428.596252 
	C316.020447,420.495361 318.120667,420.171326 325.009155,425.581726 
	C327.420135,427.475433 329.684174,429.572601 331.895874,431.700958 
	C345.873444,445.152069 359.696503,458.766602 373.822418,472.059570 
	C381.116821,478.923920 388.155396,486.616425 396.719086,491.423981 
	C405.842957,496.546051 416.632050,497.697021 427.329895,494.251801 
	C436.805573,491.200165 444.720947,486.092133 451.646515,478.927124 
	C459.815918,470.475342 468.829224,462.830475 476.864746,454.261902 
	C480.568268,450.312744 483.535309,445.290253 485.580261,440.245331 
	C490.324799,428.540588 490.628540,416.127197 485.437683,404.771179 
	C482.160767,397.602295 476.274109,391.415985 470.785065,385.507050 
	C452.547394,365.874573 433.907593,346.616272 415.543274,327.100372 
	C410.954956,322.224335 412.122437,318.748901 418.833771,316.976105 
	C425.210480,315.291687 431.644379,313.652161 438.156494,312.698975 
	C445.005371,311.696533 452.010834,310.831879 458.886627,311.166229 
	C468.947418,311.655457 479.154266,312.389252 488.931580,314.625092 
	C500.749756,317.327667 512.723633,320.559357 523.633789,325.683411 
	C534.594910,330.831421 545.398499,337.393768 554.392334,345.437073 
	C576.104065,364.854218 594.701721,386.973969 602.318542,416.034363 
	C604.811646,425.546539 606.234985,435.488007 606.843872,445.313965 
	C608.077637,465.223724 608.173889,485.201813 609.233276,505.125458 
	C609.783569,515.473145 615.838135,523.883545 621.732910,531.749573 
	C628.582153,540.889221 636.342651,549.439697 644.386841,557.574219 
	C680.412537,594.004639 716.645813,630.230103 752.871216,666.462524 
	C781.266602,694.863281 809.852722,723.073792 838.181519,751.540588 
	C861.063416,774.533875 883.652222,797.818604 906.442810,820.903198 
	C916.582764,831.173950 927.196533,840.992004 937.060364,851.516724 
	C949.332397,864.610840 961.304749,878.010071 972.855103,891.741333 
	C976.332581,895.875488 977.972351,901.555359 980.726990,906.763550 
	C981.000000,915.020935 981.000000,923.041809 980.753357,931.828186 
	C976.305969,957.999756 962.424133,975.380432 937.805603,983.623718 
	C933.029114,985.223145 927.943176,985.898438 923.000000,987.000000 
	C916.645569,987.000000 910.291199,987.000000 903.468384,987.000000 
M937.671570,941.064331 
	C945.336731,933.544861 947.074158,924.599426 943.896545,914.565735 
	C939.349365,900.207520 928.612488,893.565979 915.651306,894.214783 
	C903.661865,894.814880 895.020264,901.699036 889.984070,912.659729 
	C884.461975,924.677856 889.892273,938.599243 900.439819,946.594788 
	C904.762817,949.871765 910.140381,949.758911 915.380859,950.607117 
	C925.019104,952.167053 931.443542,948.256836 937.671570,941.064331 
z"/>
<path fill="#FFFFFF" opacity="1.000000" stroke="none" 
	d="
M43.404194,390.983368 
	C33.817039,391.689911 24.272116,391.518341 16.085670,398.517517 
	C9.039855,404.541473 3.731820,411.087250 2.198009,420.349152 
	C2.120297,420.818420 1.785281,421.245117 1.285032,421.845825 
	C1.000000,281.738800 1.000000,141.477615 1.000000,1.000000 
	C144.020828,1.000000 287.041748,1.000000 430.531342,1.000004 
	C426.453918,1.791288 421.774109,2.137946 417.386902,3.457488 
	C404.396759,7.364567 394.903778,15.652777 392.354004,29.707060 
	C389.790833,43.835411 390.102997,58.002174 390.009003,72.199791 
	C389.958282,79.862785 389.990173,87.526405 390.004700,95.189713 
	C390.010742,98.378601 390.635498,100.753662 385.260071,100.550041 
	C379.404846,100.328239 373.434784,102.801239 367.533905,104.181122 
	C344.831818,109.489807 323.157166,117.780006 302.257965,127.913429 
	C285.456421,136.060028 269.166138,145.261108 252.137695,154.264648 
	C245.763824,148.254410 238.757385,141.663437 231.768677,135.053696 
	C223.412323,127.150467 215.301605,118.967453 206.647919,111.405205 
	C200.130234,105.709541 192.251831,103.937332 183.381378,103.678009 
	C172.893356,103.371391 164.803360,107.331688 157.476608,113.800240 
	C151.223236,119.321152 145.403992,125.331131 139.310715,131.037201 
	C136.292511,133.863632 133.078964,136.480682 129.972549,139.213791 
	C121.072838,147.044067 113.504639,155.959030 107.062653,165.953766 
	C103.042290,172.191376 103.148575,178.916702 103.086662,185.734711 
	C102.970734,198.499786 110.546700,207.519272 118.560219,216.081863 
	C129.138184,227.384567 140.051575,238.375320 150.918198,249.404190 
	C153.058533,251.576508 153.208679,253.531693 151.710846,256.037842 
	C147.144394,263.678375 142.545181,271.304352 138.210571,279.076447 
	C135.816269,283.369537 134.176544,288.084717 131.766449,292.367554 
	C119.878769,313.492676 111.658165,336.085236 104.897095,359.246582 
	C102.016731,369.113861 99.662239,379.134613 96.527733,389.479065 
	C88.193123,389.915710 80.397240,389.854675 72.606590,390.028534 
	C62.870205,390.245789 53.138130,390.656281 43.404194,390.983368 
z"/>
<path fill="#FEFEFE" opacity="1.000000" stroke="none" 
	d="
M923.468628,987.000000 
	C927.943176,985.898438 933.029114,985.223145 937.805603,983.623718 
	C962.424133,975.380432 976.305969,957.999756 980.753357,932.296814 
	C981.000000,950.262085 981.000000,968.524109 981.000000,987.000000 
	C961.979614,987.000000 942.958496,987.000000 923.468628,987.000000 
z"/>
<path fill="#6B6B6B" opacity="1.000000" stroke="none" 
	d="
M477.531342,1.000004 
	C476.932617,1.306239 475.864563,1.880582 474.798004,1.877759 
	C462.384186,1.844901 449.970612,1.725037 437.278503,1.314104 
	C450.354218,1.000000 463.708466,1.000000 477.531342,1.000004 
z"/>
<path fill="#A8A8A8" opacity="1.000000" stroke="none" 
	d="
M915.258728,484.386780 
	C915.029602,467.832550 915.030273,450.979828 915.034241,433.687500 
	C915.325439,435.504456 915.868530,437.761963 915.859802,440.017365 
	C915.802856,454.707916 915.626099,469.398010 915.258728,484.386780 
z"/>
<path fill="#9C9C9C" opacity="1.000000" stroke="none" 
	d="
M528.406372,99.465897 
	C528.019531,98.372520 527.070007,96.829834 527.061218,95.281837 
	C526.976440,80.258461 527.049255,65.234200 527.060059,49.782959 
	C527.346863,52.791470 527.863708,56.223934 527.916748,59.663548 
	C528.118896,72.779152 528.171631,85.897064 528.406372,99.465897 
z"/>
<path fill="#4E4E4E" opacity="1.000000" stroke="none" 
	d="
M441.575531,916.864746 
	C447.354767,916.534485 453.592438,916.122498 459.835632,916.007507 
	C464.979279,915.912659 470.129364,916.169800 475.577515,916.543823 
	C464.597748,916.848206 453.317078,916.879822 441.575531,916.864746 
z"/>
<path fill="#6A6A6A" opacity="1.000000" stroke="none" 
	d="
M445.455902,204.009369 
	C445.823151,203.605743 446.657471,202.978836 447.490814,202.980103 
	C455.855347,202.992844 464.219757,203.108719 472.800537,203.571793 
	C463.985413,203.991211 454.953949,204.034424 445.455902,204.009369 
z"/>
<path fill="#9D9D9D" opacity="1.000000" stroke="none" 
	d="
M467.844391,713.557739 
	C459.594696,713.833496 451.082855,713.764526 442.285461,713.388672 
	C450.527313,713.125488 459.054810,713.169250 467.844391,713.557739 
z"/>
<path fill="#AAAAAA" opacity="1.000000" stroke="none" 
	d="
M43.831848,390.979034 
	C53.138130,390.656281 62.870205,390.245789 72.606590,390.028534 
	C80.397240,389.854675 88.193123,389.915710 96.446457,389.850037 
	C95.250237,390.220886 93.595833,390.947906 91.938011,390.955780 
	C76.045509,391.031433 60.152424,390.985657 43.831848,390.979034 
z"/>
<path fill="#FFFFFF" opacity="1.000000" stroke="none" 
	d="
M937.448608,941.351318 
	C931.443542,948.256836 925.019104,952.167053 915.380859,950.607117 
	C910.140381,949.758911 904.762817,949.871765 900.439819,946.594788 
	C889.892273,938.599243 884.461975,924.677856 889.984070,912.659729 
	C895.020264,901.699036 903.661865,894.814880 915.651306,894.214783 
	C928.612488,893.565979 939.349365,900.207520 943.896545,914.565735 
	C947.074158,924.599426 945.336731,933.544861 937.448608,941.351318 
z"/>
</svg>